<svg width="292" height="176" viewBox="0 0 292 176" fill="none" xmlns="http://www.w3.org/2000/svg">
<g clip-path="url(#clip0)">
<path d="M198.653 100.474L201.157 100.041C201.397 99.9985 201.636 99.9472 201.876 99.9036C197.913 97.4414 194.904 93.7032 193.345 89.3031C191.785 84.9031 191.767 80.1029 193.294 75.6913C194.82 71.2797 197.801 67.519 201.745 65.0271C205.69 62.5353 210.364 61.4605 214.999 61.9793L211.718 69.7956L219.493 63.0002C219.511 63.0047 219.529 63.0107 219.546 63.018C222.092 63.9156 224.436 65.3063 226.446 67.1108C228.455 68.9153 230.089 71.0982 231.255 73.535C232.421 75.9717 233.097 78.6145 233.242 81.3124C233.388 84.0104 233.002 86.7106 232.105 89.259C231.975 89.6296 231.82 89.9834 231.671 90.3416C233.866 89.2377 235.972 87.9526 237.689 86.3072C241.165 82.9728 243.07 78.3716 245.199 72.7028C249.416 61.4692 253.476 50.073 257.374 38.652C253.075 36.3234 249.746 32.5366 247.985 27.972C246.224 23.4074 246.148 18.3641 247.768 13.7479C247.977 13.154 248.219 12.5821 248.476 12.0204C248.54 11.8798 248.604 11.7402 248.671 11.6016C248.932 11.0631 249.207 10.5356 249.509 10.0292C249.558 9.94621 249.614 9.86853 249.664 9.78642C249.927 9.35951 250.204 8.94523 250.496 8.54358C250.604 8.39278 250.712 8.2424 250.825 8.09519C251.155 7.66272 251.497 7.2419 251.858 6.84016C251.979 6.70574 252.107 6.58014 252.23 6.44919C252.508 6.15643 252.792 5.87249 253.085 5.5974C253.239 5.45258 253.392 5.3067 253.55 5.16701C253.59 5.13118 253.628 5.09206 253.669 5.05651C253.671 5.05913 253.673 5.06195 253.675 5.06454C257.295 1.90647 261.907 0.118031 266.708 0.0100724C271.51 -0.0978857 276.197 1.48145 279.955 4.4736L275.685 14.6452L283.372 7.93064C286.062 11.3612 287.587 15.5623 287.723 19.9212C287.86 24.2801 286.602 28.5687 284.132 32.1613C284.139 32.1638 284.146 32.1657 284.153 32.1682C284.069 32.2917 283.974 32.4047 283.888 32.526C283.725 32.7535 283.56 32.9771 283.39 33.1966C283.171 33.478 282.945 33.7501 282.713 34.0184C282.538 34.2209 282.366 34.4251 282.184 34.62C281.918 34.905 281.639 35.1748 281.358 35.4432C281.194 35.5997 281.038 35.7641 280.869 35.9149C280.427 36.31 279.97 36.6848 279.498 37.0395C279.332 37.1637 279.157 37.2733 278.988 37.3922C278.656 37.6258 278.323 37.8558 277.979 38.069C277.765 38.2011 277.546 38.322 277.328 38.4462C277.012 38.6262 276.694 38.8006 276.369 38.9636C276.139 39.079 275.907 39.1887 275.673 39.2955C275.34 39.4476 275.002 39.5886 274.661 39.7228C274.432 39.8128 274.204 39.9039 273.972 39.9857C273.589 40.1207 273.201 40.2379 272.81 40.3502C272.613 40.4069 272.419 40.4718 272.22 40.5226C271.634 40.6723 271.041 40.7997 270.441 40.8973C270.329 40.9157 270.214 40.9226 270.101 40.9391C269.604 41.0115 269.104 41.0699 268.6 41.1056C268.384 41.1209 268.166 41.1231 267.948 41.1316C267.541 41.1474 267.134 41.1555 266.724 41.1467C266.485 41.1416 266.246 41.1293 266.007 41.1157C265.608 41.0932 265.208 41.0584 264.809 41.0114C264.572 40.984 264.337 40.9568 264.1 40.921C263.672 40.856 263.244 40.7709 262.817 40.6778C262.789 40.6717 262.76 40.668 262.732 40.6618C261.087 45.4801 259.411 50.2882 257.705 55.0859C259.786 53.2129 262.227 51.7853 264.879 50.8907C267.531 49.9961 270.338 49.6533 273.127 49.8835C275.916 50.1136 278.629 50.9117 281.099 52.2289C283.568 53.5461 285.743 55.3546 287.49 57.5434L280.383 65.4097L290.005 61.5652C292.342 66.4705 292.638 72.1039 290.827 77.2274C290.2 79.0278 289.321 80.7301 288.217 82.2836C285.839 85.6492 282.506 88.2223 278.65 89.6689C274.794 91.1155 270.593 91.369 266.591 90.3964C262.589 89.4238 258.972 87.2701 256.208 84.2146C253.444 81.1591 251.661 77.3427 251.091 73.2606C250.91 73.7441 250.735 74.2335 250.554 74.7165C248.676 79.7175 246.339 85.9414 241.646 90.4411C238.465 93.4911 234.551 95.426 230.796 97.062C228.351 98.1271 225.873 99.1119 223.363 100.016C220.572 101.71 217.419 102.716 214.164 102.951C210.203 104.052 206.192 104.971 202.144 105.681L199.619 106.117C197.351 106.506 195.025 106.906 192.716 107.368C193.048 107.466 193.381 107.56 193.712 107.677C197.825 109.126 201.372 111.847 203.84 115.446C206.307 119.045 207.567 123.336 207.438 127.699L191.613 132.561L205.933 134.838C204.623 138.06 202.518 140.897 199.815 143.085C197.113 145.272 193.9 146.739 190.478 147.346C187.056 147.954 183.536 147.684 180.246 146.561C176.957 145.438 174.005 143.499 171.667 140.924C171.813 141.412 171.959 141.898 172.105 142.384C172.396 143.35 172.684 144.31 172.961 145.261C176.729 158.221 175.108 168.416 168.394 173.966L164.751 169.552C171.285 164.149 169.258 153.017 167.469 146.861C167.197 145.927 166.913 144.983 166.628 144.035C164.173 135.874 161.391 126.624 164.995 118.123C170.425 105.312 186.077 102.629 198.653 100.474Z" fill="#EDEDED"/>
<path d="M194.015 175.628H83.1348C79.4987 175.628 76.0115 174.182 73.4404 171.609C70.8693 169.035 69.4249 165.545 69.4249 161.905V111.059C69.4249 110.32 69.5752 109.59 69.8666 108.911C70.158 108.233 70.5844 107.621 71.1197 107.113L129.875 51.3662C132.224 49.1374 135.338 47.895 138.575 47.895C141.812 47.895 144.925 49.1374 147.274 51.3662L203.295 104.518C204.694 105.846 205.809 107.445 206.57 109.218C207.332 110.991 207.725 112.901 207.725 114.831V161.905C207.725 163.708 207.37 165.492 206.681 167.157C205.992 168.822 204.982 170.335 203.709 171.609C202.436 172.883 200.925 173.894 199.262 174.583C197.598 175.273 195.815 175.628 194.015 175.628Z" fill="#53A0CB"/>
<path opacity="0.1" d="M69.4249 111.894H206.572V167.342C206.572 169.54 205.7 171.647 204.148 173.201C202.595 174.755 200.489 175.628 198.294 175.628H77.7034C75.5078 175.628 73.4021 174.755 71.8496 173.201C70.2971 171.647 69.4249 169.54 69.4249 167.342V111.894V111.894Z" fill="black"/>
<path d="M181.885 68.2021H94.9761C90.81 68.2021 87.4327 71.5826 87.4327 75.7526V162.742C87.4327 166.912 90.81 170.293 94.9761 170.293H181.885C186.052 170.293 189.429 166.912 189.429 162.742V75.7526C189.429 71.5826 186.052 68.2021 181.885 68.2021Z" fill="white"/>
<path opacity="0.1" d="M189.429 114.186V170.293H87.4327V114.186L138.431 138.858L189.429 114.186Z" fill="black"/>
<path d="M138.431 142.03L73.0859 110.418C72.6817 110.222 72.2345 110.133 71.7863 110.157C71.3381 110.182 70.9034 110.32 70.5232 110.559C70.1429 110.798 69.8294 111.129 69.6121 111.523C69.3948 111.916 69.2808 112.358 69.2808 112.807V167.198C69.2808 168.286 69.495 169.363 69.911 170.369C70.327 171.374 70.9368 172.287 71.7056 173.057C72.4743 173.826 73.3869 174.437 74.3913 174.853C75.3957 175.269 76.4722 175.484 77.5593 175.484H199.302C200.389 175.484 201.466 175.269 202.47 174.853C203.475 174.437 204.387 173.826 205.156 173.057C205.925 172.287 206.535 171.374 206.951 170.369C207.367 169.363 207.581 168.286 207.581 167.198V113.739C207.581 113.19 207.442 112.651 207.177 112.171C206.911 111.692 206.529 111.287 206.065 110.996C205.601 110.704 205.07 110.536 204.523 110.505C203.977 110.475 203.431 110.585 202.938 110.823L138.431 142.03Z" fill="#53A0CB"/>
<path d="M124.745 77.575H96.2205V81.6124H124.745V77.575Z" fill="#25536C"/>
<path d="M178.624 92.283H93.9155V94.5901H178.624V92.283Z" fill="#25536C"/>
<path d="M178.624 100.07H93.9155V102.377H178.624V100.07Z" fill="#25536C"/>
<path d="M178.624 107.856H93.9155V110.163H178.624V107.856Z" fill="#25536C"/>
<path d="M17.5624 175.484H254.977" stroke="#3F3D56" stroke-miterlimit="10"/>
<path d="M0 139.972C0 156.975 10.6573 170.734 23.8277 170.734Z" fill="#151B25"/>
<path d="M23.8277 170.734C23.8277 153.54 35.7207 139.626 50.4181 139.626Z" fill="#57B894"/>
<path d="M8.63324 141.513C8.63324 157.665 15.4292 170.735 23.8277 170.735Z" fill="#57B894"/>
<path d="M23.8277 170.735C23.8277 148.764 37.5742 130.985 54.5621 130.985Z" fill="#151B25"/>
<path d="M18.815 170.951C18.815 170.951 22.1942 170.847 23.2126 170.121C24.231 169.396 28.4106 168.529 28.6632 169.693C28.9158 170.857 33.7415 175.483 29.9264 175.513C26.1113 175.544 21.0619 174.919 20.0455 174.299C19.029 173.679 18.815 170.951 18.815 170.951Z" fill="#A8A8A8"/>
<path opacity="0.2" d="M29.9945 175.108C26.1794 175.139 21.13 174.514 20.1136 173.894C19.3395 173.422 19.031 171.728 18.9278 170.947C18.8563 170.95 18.815 170.951 18.815 170.951C18.815 170.951 19.029 173.679 20.0455 174.299C21.0619 174.919 26.1114 175.544 29.9264 175.514C31.0277 175.505 31.4081 175.112 31.3872 174.532C31.2342 174.883 30.8142 175.102 29.9945 175.108Z" fill="black"/>
<path d="M207.367 46.9417C207.194 48.4859 206.017 49.7298 205.581 51.2212C204.925 53.4659 206.06 55.8747 207.612 57.6228C208.865 59.0186 210.381 60.1516 212.074 60.9563C213.768 61.7609 215.604 62.2212 217.476 62.3105C218.026 62.3589 218.58 62.2985 219.107 62.1326C219.577 61.9432 220 61.6536 220.347 61.2839C221.516 60.109 222.144 58.4812 222.394 56.842C222.644 55.2029 222.547 53.533 222.449 51.8777C222.449 51.5356 222.387 51.1962 222.266 50.8765C222.106 50.5718 221.887 50.3024 221.622 50.0842C220.78 49.3114 219.853 48.6373 218.859 48.0751C218.409 47.8735 218.013 47.5699 217.701 47.1883C217.513 46.8615 217.391 46.5007 217.343 46.1267L217.038 44.5697C216.983 44.121 216.83 43.6899 216.59 43.3075C216.05 42.5794 215.019 42.4803 214.114 42.4448L210.799 42.3147C209.768 42.2742 208.409 41.9782 207.403 42.1809C206.463 42.3702 206.775 43.2372 206.946 44.0266C207.193 44.9798 207.335 45.9574 207.367 46.9417V46.9417Z" fill="#FFB7B7"/>
<path opacity="0.1" d="M207.367 46.9417C207.194 48.4859 206.017 49.7298 205.581 51.2212C204.925 53.4659 206.06 55.8747 207.612 57.6228C208.865 59.0186 210.381 60.1516 212.074 60.9563C213.768 61.7609 215.604 62.2212 217.476 62.3105C218.026 62.3589 218.58 62.2985 219.107 62.1326C219.577 61.9432 220 61.6536 220.347 61.2839C221.516 60.109 222.144 58.4812 222.394 56.842C222.644 55.2029 222.547 53.533 222.449 51.8777C222.449 51.5356 222.387 51.1962 222.266 50.8765C222.106 50.5718 221.887 50.3024 221.622 50.0842C220.78 49.3114 219.853 48.6373 218.859 48.0751C218.409 47.8735 218.013 47.5699 217.701 47.1883C217.513 46.8615 217.391 46.5007 217.343 46.1267L217.038 44.5697C216.983 44.121 216.83 43.6899 216.59 43.3075C216.05 42.5794 215.019 42.4803 214.114 42.4448L210.799 42.3147C209.768 42.2742 208.409 41.9782 207.403 42.1809C206.463 42.3702 206.775 43.2372 206.946 44.0266C207.193 44.9798 207.335 45.9574 207.367 46.9417Z" fill="black"/>
<path d="M228.455 116.447C227.985 121.601 227.515 126.755 227.046 131.907C226.678 135.962 226.303 140.034 225.582 144.037C225.333 145.416 225.041 146.788 224.695 148.149C223.732 151.926 222.335 155.618 221.884 159.49C221.87 159.601 221.858 159.715 221.846 159.829C221.796 160.685 221.634 161.531 221.365 162.346C221.14 162.937 220.793 163.476 220.549 164.06C220.063 165.228 219.999 166.519 219.939 167.785C218.229 166.822 216.357 166.182 214.415 165.895C213.478 165.755 212.435 165.655 211.797 164.955C211.09 164.181 211.168 162.996 211.287 161.956C211.659 158.728 212.031 155.5 212.401 152.275C212.522 150.887 212.758 149.512 213.106 148.163C213.234 147.714 213.388 147.273 213.545 146.831C213.761 146.223 213.979 145.615 214.142 144.991C214.378 143.982 214.543 142.958 214.636 141.926C215.018 138.678 215.478 135.438 215.881 132.192L215.902 132.021C216.507 127.102 216.967 122.159 216.835 117.204C216.816 116.471 216.785 115.737 216.737 115.001C216.671 113.935 216.574 113.37 217.456 112.703C218.431 111.967 219.714 111.452 220.829 110.97C221.429 110.709 228.037 108.361 228.191 108.876C228.501 109.975 228.664 111.11 228.675 112.252C228.68 113.653 228.606 115.054 228.455 116.447Z" fill="#151B25"/>
<path opacity="0.1" d="M225.582 144.037C225.333 145.416 225.041 146.788 224.695 148.149C223.732 151.926 222.335 155.617 221.884 159.49C221.87 159.601 221.858 159.715 221.846 159.829C218.901 155.618 216.419 151.088 213.545 146.831C213.761 146.223 213.979 145.615 214.142 144.991C214.378 143.982 214.543 142.958 214.636 141.926C215.018 138.678 215.478 135.438 215.881 132.192L215.902 132.021C216.071 132.71 216.312 133.379 216.621 134.018C218.552 137.945 223.139 139.929 225.383 143.688C225.452 143.804 225.518 143.92 225.582 144.037Z" fill="black"/>
<path d="M201.678 109.508C201.775 112.657 202.279 115.778 202.782 118.889L203.819 125.307C204.386 128.819 204.977 132.403 206.638 135.549C207.88 137.902 209.67 139.911 211.289 142.022C215.27 147.213 218.26 153.092 222.034 158.435C223.132 159.988 224.7 161.667 226.572 161.343C227.801 161.13 228.694 160.106 229.659 159.317C230.798 158.386 232.171 157.705 233.067 156.538C233.963 155.371 234.138 153.432 232.925 152.601C232.485 152.358 232.019 152.167 231.535 152.032C229.653 151.316 228.435 149.477 227.66 147.617C226.885 145.757 226.415 143.757 225.383 142.027C223.139 138.269 218.551 136.284 216.62 132.356C215.538 130.156 215.435 127.62 215.353 125.169L215.142 118.922C215.119 118.239 215.101 117.528 215.378 116.904C216.117 115.241 218.347 115.086 220.153 114.875C222.203 114.635 224.189 114.007 226.005 113.027C227.045 112.465 228.062 111.748 228.618 110.704C229.126 109.752 229.196 108.634 229.255 107.557L229.881 96.235C229.934 95.2609 229.983 94.2538 229.641 93.3407C228.779 91.0478 225.887 90.2986 223.442 90.408C218.892 90.6116 214.692 92.5704 210.403 93.8932C209.34 94.2287 208.262 94.5103 207.171 94.737C206.208 94.9304 205.043 94.8502 204.125 95.16C202.492 95.711 202.533 99.2853 202.302 100.768C201.824 103.656 201.615 106.581 201.678 109.508V109.508Z" fill="#151B25"/>
<path d="M225.954 161.818C226.356 162.223 226.487 162.816 226.591 163.377C227.171 166.486 227.472 169.642 227.492 172.805C227.465 173.1 227.524 173.397 227.661 173.659C227.774 173.816 227.928 173.939 228.105 174.015C229.264 174.569 230.61 173.798 231.576 172.951C233.367 171.38 234.883 169.272 234.984 166.891C234.966 166.278 234.987 165.664 235.049 165.054C235.206 164.157 235.729 163.376 236.19 162.591C236.974 161.256 237.607 159.837 238.076 158.36C238.252 157.806 238.369 157.107 237.935 156.72C237.781 156.599 237.606 156.508 237.418 156.451L232.181 154.505C231.727 154.336 230.597 157.24 230.418 157.558C229.98 158.334 229.544 158.775 228.664 158.954C227.766 159.137 226.697 158.875 225.859 159.323C224.442 160.082 225.152 161.008 225.954 161.818Z" fill="#151B25"/>
<path d="M217.873 163.61C217.775 163.416 217.64 163.244 217.474 163.104C217.231 162.95 216.956 162.856 216.67 162.831C215.673 162.661 214.491 162.549 213.802 163.291C213.157 163.987 213.268 165.12 212.729 165.9C212.558 166.147 212.327 166.351 212.179 166.612C211.995 167.012 211.912 167.451 211.937 167.89C211.909 169.1 211.882 170.312 211.965 171.519C212.035 172.531 212.205 173.591 212.837 174.383C213.852 175.655 215.682 175.838 217.306 175.921L218.621 175.988C218.983 176.032 219.351 175.998 219.699 175.889C219.915 175.789 220.108 175.647 220.268 175.471C220.427 175.295 220.55 175.089 220.629 174.865C221.314 173.161 220.229 171.326 219.561 169.616C218.794 167.651 218.932 165.468 217.873 163.61Z" fill="#151B25"/>
<path d="M206.986 38.2407C206.97 38.068 206.995 37.894 207.06 37.7331C207.253 37.3921 207.756 37.4849 208.135 37.5807C209.661 37.9658 211.27 37.6172 212.841 37.7072C214.412 37.7972 216.182 38.5834 216.498 40.1267C217.639 39.3174 218.622 38.3063 219.399 37.1432C219.835 36.49 220.215 35.7418 220.156 34.9584C220.07 33.8285 219.123 32.9835 218.246 32.2669L215.632 30.1308C215.289 29.8151 214.893 29.5629 214.461 29.3859C213.858 29.1794 213.199 29.2778 212.561 29.2782C210.658 29.2794 208.63 28.4126 206.937 29.2834C206.23 29.6471 205.698 30.2705 205.185 30.8783L202.852 33.6427C202.676 33.8189 202.548 34.0367 202.479 34.2758C202.412 34.6132 202.586 34.9463 202.646 35.2848C202.756 35.9024 202.49 36.5615 202.695 37.1546C203.034 38.1392 204.228 38.2786 204.958 38.8431C205.231 39.0535 205.657 39.7664 205.981 39.7577C206.566 39.742 206.971 38.6957 206.986 38.2407Z" fill="#151B25"/>
<path d="M210.945 46.3895C215.072 46.3895 218.417 43.0413 218.417 38.9111C218.417 34.7808 215.072 31.4326 210.945 31.4326C206.819 31.4326 203.474 34.7808 203.474 38.9111C203.474 43.0413 206.819 46.3895 210.945 46.3895Z" fill="#FFB7B7"/>
<path d="M212.695 55.2779C212.442 54.5511 211.963 53.924 211.33 53.4876C210.696 53.0512 209.94 52.8282 209.172 52.8508C208.952 52.8918 208.724 52.863 208.522 52.7686C208.407 52.6803 208.315 52.5657 208.254 52.4343C207.8 51.6165 207.435 50.7523 207.165 49.8565C207.046 49.4607 206.883 48.994 206.483 48.8911C206.317 48.8694 206.149 48.8932 205.996 48.9599C205.842 49.0266 205.71 49.1337 205.613 49.2697C205.423 49.5437 205.216 49.8049 204.992 50.0517C204.052 50.8927 202.386 50.1262 201.389 50.8977C201.226 51.0238 201.091 51.1852 200.92 51.2998C200.749 51.403 200.564 51.4822 200.372 51.5353C198.446 52.1646 196.558 52.9048 194.717 53.7521C195.38 57.7511 196.06 61.8199 197.615 65.563C198.355 67.3443 199.194 69.0889 199.787 70.9246C201.1 74.992 201.158 79.3439 201.173 83.6183C201.183 86.5438 201.168 89.5317 200.223 92.2998C199.968 92.9116 199.789 93.5519 199.688 94.2069C199.631 94.8665 199.823 95.5938 200.357 95.9846C200.667 96.1873 201.021 96.3118 201.389 96.3474C203.028 96.588 204.679 96.1516 206.293 95.7776C210.617 94.7752 215.027 94.2016 219.429 93.6296L226.805 92.671C227.334 92.635 227.851 92.5012 228.331 92.2762C229.681 91.5365 229.809 89.5044 228.971 88.2127C228.569 87.5935 228.002 87.0855 227.664 86.4289C227.327 85.7724 227.298 84.8544 227.879 84.3996C229.061 83.4747 228.709 81.7586 228.765 80.2576C228.923 76.0608 228.901 71.8624 228.701 67.6623C228.642 66.7929 228.628 65.9209 228.659 65.05C228.79 63.5743 229.063 62.1146 229.473 60.691L231.714 51.8582C231.129 50.9321 230.008 50.3446 228.946 50.0778C227.884 49.8111 226.778 49.7326 225.732 49.4082C223.589 48.7436 221.682 47.0572 219.444 47.2144C219.275 47.2174 219.108 47.2581 218.957 47.3335C218.452 47.6196 218.532 48.3476 218.5 48.9272C218.428 50.2097 217.486 51.2815 216.445 52.033C215.405 52.7845 214.216 53.3324 213.26 54.1894C213.091 54.3172 212.952 54.4812 212.854 54.6695C212.757 54.8579 212.702 55.0657 212.695 55.2779V55.2779Z" fill="#57B894"/>
<path d="M183.09 63.656C182.595 63.9778 182.068 64.2489 181.519 64.4654C180.981 64.6256 180.472 64.8726 180.013 65.1966C179.802 65.3797 179.625 65.5989 179.49 65.844C179.237 66.293 179.109 66.8016 179.12 67.3169C179.13 67.8322 179.279 68.3352 179.549 68.7734C179.82 69.2117 180.204 69.5691 180.66 69.8083C181.116 70.0476 181.628 70.1599 182.142 70.1336C182.826 70.0569 183.49 69.8587 184.104 69.5482L189.373 67.2625C190.265 66.8757 191.229 66.4223 191.65 65.5456C191.7 65.4638 191.718 65.3671 191.702 65.2731C191.659 65.1736 191.582 65.0928 191.485 65.0453C190.297 64.2726 189.257 63.2915 188.417 62.1492C188.201 61.8554 187.936 61.1616 187.63 60.9854C186.515 60.3425 183.983 63.076 183.09 63.656Z" fill="#E8AFAF"/>
<path d="M239.427 61.7805L241.37 64.002C241.787 64.4789 242.204 64.9563 242.584 65.4632C243.518 66.7511 244.267 68.1634 244.81 69.6591C245.232 70.7683 245.582 71.9498 245.435 73.1276C245.337 73.7314 245.174 74.3229 244.949 74.8916C244.593 75.9854 244.151 77.0496 243.629 78.0742C243.189 78.8526 242.693 79.5974 242.143 80.3025C240.639 82.2981 238.993 84.1825 237.218 85.9412C236.554 86.5994 236.275 87.6635 235.986 88.5531C235.453 90.194 234.184 91.472 232.957 92.6839C232.562 93.1007 232.127 93.4761 231.656 93.8043C230.951 94.2587 230.127 94.4936 229.289 94.4791C228.922 94.4817 228.558 94.4064 228.222 94.2582C227.383 93.859 226.956 92.887 226.868 91.9607C226.79 91.12 226.931 90.2734 227.277 89.5034C228.392 87.0314 231.255 85.9602 233.278 84.1565C234.465 83.0989 235.373 81.7704 236.267 80.4563C236.875 79.6358 237.383 78.7454 237.779 77.8041C238.231 76.5971 238.055 75.1682 238.45 73.9413C238.617 73.4227 238.914 72.9544 239.093 72.44C239.273 71.9256 239.318 71.315 239.004 70.8698C238.767 70.5869 238.465 70.3657 238.124 70.2252C236.831 69.5685 235.384 68.7233 235.136 67.2935C235.037 66.5006 235.244 65.6998 235.715 65.0543C236.184 64.4174 236.732 63.8428 237.345 63.3442C237.911 62.8438 238.861 62.2809 239.427 61.7805Z" fill="#FFB7B7"/>
<path d="M181.843 66.757C181.5 66.0633 181.071 65.3557 180.379 65.0108C180.043 64.8649 179.682 64.7889 179.316 64.7874C178.95 64.7858 178.587 64.8588 178.251 65.0018C177.579 65.2915 176.951 65.6719 176.383 66.1323L174.708 67.3679C174.328 67.6172 173.993 67.9276 173.714 68.2865C173.45 68.7219 173.274 69.2051 173.196 69.7085C172.904 70.8567 172.815 72.0471 172.933 73.226C173.199 75.1162 174.337 76.7664 175.59 78.2052C176.373 79.1043 177.34 80.0117 178.531 80.05C179.045 80.0666 179.617 79.8637 179.831 79.3954C179.905 79.2098 179.944 79.0121 179.947 78.8122C180.076 76.7038 179.322 74.6445 178.444 72.724C178.163 72.2211 177.998 71.6625 177.959 71.088C177.952 70.9914 177.978 70.8952 178.03 70.814C178.106 70.7351 178.207 70.6856 178.316 70.6743C179.519 70.4362 181.59 71.3714 182.434 70.0346C182.981 69.168 182.232 67.5428 181.843 66.757Z" fill="#FFB7B7"/>
<path d="M206.594 35.8874C206.578 35.7148 206.604 35.5407 206.668 35.3798C206.861 35.0389 207.364 35.1317 207.744 35.2274C209.27 35.6125 210.878 35.2639 212.449 35.3539C214.02 35.4439 215.79 36.2301 216.106 37.7734C217.247 36.9641 218.23 35.953 219.007 34.7899C219.443 34.1367 219.823 33.3885 219.764 32.6051C219.678 31.4752 218.731 30.6302 217.854 29.9136L215.24 27.7775C214.897 27.4619 214.501 27.2097 214.07 27.0326C213.466 26.8261 212.808 26.9245 212.17 26.9249C210.267 26.9261 208.238 26.0593 206.545 26.9301C205.838 27.2938 205.306 27.9172 204.793 28.525L202.46 31.2895C202.284 31.4657 202.156 31.6834 202.087 31.9225C202.021 32.26 202.194 32.593 202.254 32.9316C202.364 33.5491 202.099 34.2083 202.303 34.8014C202.642 35.786 203.836 35.9253 204.567 36.4898C204.839 36.7002 205.265 37.4132 205.59 37.4045C206.175 37.3887 206.579 36.3424 206.594 35.8874Z" fill="#151B25"/>
<path d="M190.725 56.3819C190.424 56.5767 190.159 56.8234 189.943 57.1106C189.669 57.5252 189.614 58.0486 189.378 58.4862C188.875 59.4228 187.697 59.756 186.962 60.5243C186.846 60.63 186.765 60.7693 186.73 60.923C186.727 61.1315 186.797 61.3347 186.928 61.4968L190.471 67.0719C191.65 67.1758 192.782 66.4361 193.962 66.5343C194.403 66.5709 194.854 66.7233 195.276 66.5929C195.579 66.4587 195.862 66.2851 196.12 66.0767C196.824 65.6311 197.761 65.5792 198.352 64.9913C198.919 64.4271 198.991 63.5444 198.984 62.7442C198.994 62.0494 198.923 61.3557 198.774 60.6771C198.252 58.5372 196.617 56.895 195.592 54.9994C195.093 54.0766 194.822 53.5363 193.765 54.17C192.704 54.8069 191.725 55.6506 190.725 56.3819Z" fill="#57B894"/>
<path d="M233.754 53.5626C234.42 53.9954 235.021 54.5217 235.537 55.1253C236.077 55.8219 236.382 56.6744 236.901 57.387C237.403 58.0777 238.087 58.6127 238.657 59.2487C239.522 60.2133 240.107 61.3901 240.683 62.5511C239.278 64.3845 237.747 66.1169 236.1 67.7355C235.916 67.9518 235.675 68.1107 235.404 68.1934C235.219 68.213 235.033 68.1866 234.861 68.1165C234.69 68.0465 234.538 67.935 234.42 67.792C234.165 67.524 233.984 67.1937 233.74 66.9154C233.164 66.321 232.397 65.9495 231.574 65.8669C230.758 65.7879 229.937 65.7766 229.12 65.833C228.94 65.853 228.759 65.8225 228.596 65.7449C228.474 65.6611 228.376 65.5482 228.31 65.4165C227.35 63.7827 227.659 61.7314 227.997 59.8669L228.774 55.5885C228.886 54.7714 229.104 53.9722 229.42 53.2107C229.714 52.5815 230.372 51.5145 231.181 51.7029C231.996 51.8927 233.069 53.0688 233.754 53.5626Z" fill="#57B894"/>
<path d="M91.6105 81.6555C98.1347 81.6555 103.424 76.352 103.424 69.8099C103.424 63.2678 98.1347 57.9644 91.6105 57.9644C85.0863 57.9644 79.7974 63.2678 79.7974 69.8099C79.7974 76.352 85.0863 81.6555 91.6105 81.6555Z" fill="white"/>
<path d="M91.6105 55.9456C88.8182 55.9456 86.0886 56.7743 83.7669 58.3271C81.4452 59.8798 79.6357 62.0868 78.5671 64.669C77.4985 67.2511 77.2189 70.0924 77.7637 72.8336C78.3084 75.5748 79.6531 78.0927 81.6275 80.069C83.602 82.0453 86.1176 83.3911 88.8562 83.9364C91.5949 84.4817 94.4336 84.2018 97.0133 83.1323C99.5931 82.0627 101.798 80.2515 103.349 77.9276C104.901 75.6037 105.729 72.8716 105.729 70.0767C105.718 66.3323 104.227 62.7443 101.581 60.0966C98.9362 57.4489 95.3515 55.9565 91.6105 55.9456ZM88.7122 77.6111L81.4767 70.3689L83.5062 68.3375L88.719 73.5552L99.7217 62.5424L101.751 64.5737L88.7122 77.6111Z" fill="#57B894"/>
</g>
<defs>
<clipPath id="clip0">
<rect width="292" height="176" fill="white"/>
</clipPath>
</defs>
</svg>
